<svg xmlns="http://www.w3.org/2000/svg" xmlns:xlink="http://www.w3.org/1999/xlink" width="30" height="54" viewBox="0 0 30 54">
  <defs>
    <clipPath id="clip-path">
      <rect id="사각형_69" width="30" height="30" transform="translate(846 26)" fill="#90a4ae" stroke="#707070" stroke-width="1"/>
    </clipPath>
  </defs>
  <g id="그룹_113" transform="translate(-846 -26)">
    <text id="홈" transform="translate(861 75)" fill="#90a4ae" font-size="16" font-family="SpoqaHanSans-Bold, SpoqaHanSans" font-weight="700"><tspan x="-7.36" y="0">홈</tspan></text>
    <g id="마스크_그룹_1" clip-path="url(#clip-path)">
      <g id="home_black_24dp" transform="translate(846 26)">
        <path id="패스_10" d="M0,0H30V30H0Z" fill="none"/>
        <path id="패스_11" d="M12.5,23.75V17.5h5v6.25A1.254,1.254,0,0,0,18.75,25H22.5a1.254,1.254,0,0,0,1.25-1.25V15h2.125a.62.62,0,0,0,.413-1.087L15.837,4.5a1.26,1.26,0,0,0-1.675,0L3.713,13.913A.622.622,0,0,0,4.125,15H6.25v8.75A1.254,1.254,0,0,0,7.5,25h3.75A1.254,1.254,0,0,0,12.5,23.75Z" fill="#90a4ae"/>
      </g>
    </g>
  </g>
</svg>
