<svg xmlns="http://www.w3.org/2000/svg" xmlns:xlink="http://www.w3.org/1999/xlink" width="60" height="54" viewBox="0 0 60 54">
  <defs>
    <clipPath id="clip-path">
      <rect width="30" height="30" transform="translate(1046 26)" fill="#90a4ae" stroke="#707070" stroke-width="1"/>
    </clipPath>
  </defs>
  <g transform="translate(-1031 -26)">
    <text id="일기쓰기" transform="translate(1061 75)" fill="#90a4ae" font-size="16" font-family="SpoqaHanSans-Bold, SpoqaHanSans" font-weight="700"><tspan x="-29.44" y="0">일기쓰기</tspan></text>
    <g clip-path="url(#clip-path)">
      <g id="history_edu_black_24dp" transform="translate(1046 26)">
        <g>
          <rect width="30" height="30" fill="none"/>
          <rect width="30" height="30" fill="none"/>
        </g>
        <g>
          <g>
            <path d="M11.25,6.25v.475A8.852,8.852,0,0,0,7.988,6.1,8.73,8.73,0,0,0,2.925,7.713a1.254,1.254,0,0,0-.163,1.912l3.212,3.212H7.362v1.387a5.844,5.844,0,0,0,3.888,1.7V18.75H8.75A1.254,1.254,0,0,0,7.5,20v2.5A2.507,2.507,0,0,0,10,25H22.5a3.745,3.745,0,0,0,3.75-3.75v-15A1.254,1.254,0,0,0,25,5H12.5A1.254,1.254,0,0,0,11.25,6.25ZM9.863,13.012V10.325H7.013l-1.3-1.3A6.337,6.337,0,0,1,7.987,8.6a6.242,6.242,0,0,1,4.425,1.825l1.762,1.762-.25.25a3.376,3.376,0,0,1-2.4,1A3.461,3.461,0,0,1,9.863,13.012ZM23.75,21.25a1.25,1.25,0,0,1-2.5,0V20A1.254,1.254,0,0,0,20,18.75H13.75V15.512a5.823,5.823,0,0,0,1.95-1.287l.25-.25L19.487,17.5H21.25V15.738l-7.5-7.462V7.5h10Z" fill="#90a4ae"/>
          </g>
        </g>
      </g>
    </g>
  </g>
</svg>
