<svg xmlns="http://www.w3.org/2000/svg" width="204" height="40.515" viewBox="0 0 204 40.515">
  <g id="group_81"  transform="translate(-695 -335.243)">
    <g id="group_80" transform="translate(276.222 132.854)">
      <path id="path_4" d="M444.735,202.389h1.892a.849.849,0,0,0,.192.074,9.528,9.528,0,0,1,6.318,3.529.621.621,0,0,0,.505.114,18.336,18.336,0,0,1,2.749-.588,7.839,7.839,0,0,1,8,6.123.916.916,0,0,0,.7.8,10.705,10.705,0,0,1-.131,20.45c-.3.106-.5.2-.573.561a7.832,7.832,0,0,1-10.736,5.714.4.4,0,0,0-.562.148,9.446,9.446,0,0,1-14.831-.01c-.182-.217-.311-.21-.567-.14a13.147,13.147,0,0,1-2.64.6,7.846,7.846,0,0,1-8.073-6.094,1.033,1.033,0,0,0-.782-.857,10.818,10.818,0,0,1-7.048-7.431c-.164-.558-.25-1.138-.373-1.708V221.61a2.141,2.141,0,0,0,.089-.292,10.776,10.776,0,0,1,7.465-8.9.862.862,0,0,0,.661-.721,7.824,7.824,0,0,1,8.041-6.181,22.282,22.282,0,0,1,3.094.6s.09-.1.176-.2a8.963,8.963,0,0,1,3.869-2.825C443,202.788,443.88,202.618,444.735,202.389Zm-6.155,21.8.057.14c-.158.136-.324.264-.472.409-1.017,1-2.037,1.988-3.041,3a1.446,1.446,0,0,0-.361,1.663,1.464,1.464,0,0,0,1.409.982q3.2.029,6.4,0a1.48,1.48,0,0,0,1.395-.934,1.54,1.54,0,0,0-1.431-2.153c-.793-.022-1.587,0-2.526,0,1.238-1.212,2.362-2.316,3.491-3.414a1.54,1.54,0,0,0,.473-1.821,1.6,1.6,0,0,0-1.637-.969c-1.977.01-3.955,0-5.932,0a1.561,1.561,0,1,0-.011,3.1C437.125,224.2,437.853,224.193,438.58,224.193Zm12.61-6.2.061.141c-.146.123-.3.237-.438.37Q449.288,220,447.77,221.5a1.544,1.544,0,0,0,1.01,2.685q3.2.029,6.4,0a1.481,1.481,0,0,0,1.4-.932,1.54,1.54,0,0,0-1.429-2.154c-.793-.023-1.587,0-2.519,0,1.232-1.208,2.354-2.313,3.482-3.413a1.543,1.543,0,0,0,.474-1.821,1.594,1.594,0,0,0-1.636-.97c-1.977.01-3.955,0-5.932,0a1.561,1.561,0,1,0-.014,3.1C449.734,218,450.462,217.993,451.19,217.993Z" fill="#c1d5e0"/>
    </g>
    <text transform="translate(830 364)" fill="#c1d5e0" font-size="20" font-family="SpoqaHanSans-Bold, SpoqaHanSans" font-weight="700"><tspan x="-68.94" y="0">눈감고 쓰는 일기</tspan></text>
  </g>
</svg>
