<svg xmlns="http://www.w3.org/2000/svg" xmlns:xlink="http://www.w3.org/1999/xlink" width="60" height="54" viewBox="0 0 60 54">
  <defs>
    <clipPath id="clip-path">
      <rect width="30" height="30" transform="translate(946 26)" fill="#90a4ae" stroke="#707070" stroke-width="1"/>
    </clipPath>
  </defs>
  <g transform="translate(-931 -26)">
    <text transform="translate(961 75)" fill="#90a4ae" font-size="16" font-family="SpoqaHanSans-Bold, SpoqaHanSans" font-weight="700"><tspan x="-29.44" y="0">일기목록</tspan></text>
    <g clip-path="url(#clip-path)">
      <g transform="translate(946 26)">
        <g>
          <rect width="30" height="30" fill="none"/>
        </g>
        <g>
          <path d="M22.688,1.688l-5,5a.614.614,0,0,0-.187.45V17.35a.621.621,0,0,0,1.038.462l5-4.5a.6.6,0,0,0,.212-.463V2.138A.625.625,0,0,0,22.688,1.688Zm5.4,4.813a13.213,13.213,0,0,0-1.837-.762V20.775A12.86,12.86,0,0,0,21.875,20,13.247,13.247,0,0,0,15,21.975V6.85A13.66,13.66,0,0,0,1.912,6.5,1.216,1.216,0,0,0,1.25,7.6V22.7A1.247,1.247,0,0,0,3.1,23.788,10.867,10.867,0,0,1,8.125,22.5,11.305,11.305,0,0,1,15,25a11.305,11.305,0,0,1,6.875-2.5A10.727,10.727,0,0,1,26.9,23.8a1.247,1.247,0,0,0,1.85-1.088V7.6A1.216,1.216,0,0,0,28.087,6.5Z" fill="#90a4ae"/>
        </g>
      </g>
    </g>
  </g>
</svg>
