<svg id="settings_black_24dp" xmlns="http://www.w3.org/2000/svg" width="30" height="30" viewBox="0 0 30 30">
  <rect width="30" height="30" fill="none"/>
  <path d="M23.806,14.5c0-.287-.013-.562-.038-.85l2.325-1.762a1.257,1.257,0,0,0,.325-1.625L24.081,6.225A1.234,1.234,0,0,0,22.518,5.7L19.831,6.837a9.484,9.484,0,0,0-1.462-.85L18.006,3.1A1.254,1.254,0,0,0,16.768,2H12.106a1.257,1.257,0,0,0-1.25,1.1l-.363,2.888a9.484,9.484,0,0,0-1.462.85L6.343,5.7a1.234,1.234,0,0,0-1.562.525l-2.338,4.05A1.26,1.26,0,0,0,2.768,11.9l2.325,1.763c-.025.275-.038.55-.038.837s.013.563.038.85L2.768,17.112a1.257,1.257,0,0,0-.325,1.625l2.338,4.038a1.234,1.234,0,0,0,1.563.525l2.688-1.137a9.484,9.484,0,0,0,1.462.85l.363,2.888A1.254,1.254,0,0,0,12.093,27h4.663a1.254,1.254,0,0,0,1.237-1.1l.363-2.888a9.483,9.483,0,0,0,1.462-.85L22.506,23.3a1.234,1.234,0,0,0,1.563-.525l2.338-4.038a1.26,1.26,0,0,0-.325-1.625L23.756,15.35A6.463,6.463,0,0,0,23.806,14.5Zm-9.325,4.375A4.375,4.375,0,1,1,18.856,14.5,4.38,4.38,0,0,1,14.481,18.875Z" transform="translate(0.569 0.5)" fill="#90a4ae"/>
</svg>
